# xmcd
#
# Track frame offsets:
#	150
#	22617
#	49457
#	76500
#
# Disc length: 1297 seconds
# Revision: 4
# Processed by: cddbd v1.5.2PL0 Copyright (c) Steve Scherf et al.
# Submitted via: dBpowerAMP V12.0
#
DISCID=1d050f04
DTITLE=Various Artist - Your Body's Callin'
DYEAR=1993
DGENRE=R&B
TTITLE0=R. Kelly feat. Aaliyah - Your Body's Callin (His and Hers Radio Edit)
TTITLE1=R. Kelly feat. Aaliyah - Your Body's Callin' (His and Hers Mix)
TTITLE2=R. Kelly - Your Body's Callin' (Jazz Instrumental)
TTITLE3=R. Kelly - Your Body's Callin' (LP Version)
EXTD=
EXTT0=
EXTT1=
EXTT2=
EXTT3=
PLAYORDER=
